# xmcd CD database file
# Copyright (C) 1993-1998 Ti Kan
#
# Track frame offsets:
#  182
#  10412
#  28585
#  38507
#  55875
#  72715
#  87220
#  106315
#  123790
#  142702
#  155867
#
# Disc length: 2247 seconds
#
# Revision: 1
# Processed by: cddbd v1.4b41PL1 Copyright (c) Steve Scherf et al.
# Submitted via: CDWizzard Release:4.35
#
DISCID=8b08c50b
DTITLE=Varios - La gesta de Aparicio
DYEAR=1900
DGENRE=
TTITLE0=Huellas del 96
TTITLE1=Como un jazmin del pais
TTITLE2=De la campania
TTITLE3=Paso del parque del Dayman
TTITLE4=Presente mi general
TTITLE5=Milonga del sacrificio
TTITLE6=1904
TTITLE7=Canto al general
TTITLE8=Muerte del general Aparicio Saravia
TTITLE9=Milonga del cordobes
TTITLE10=De poncho blanco
EXTD=
EXTT0=
EXTT1=
EXTT2=
EXTT3=
EXTT4=
EXTT5=
EXTT6=
EXTT7=
EXTT8=
EXTT9=
EXTT10=
PLAYORDER=
